:FULLY-SPECIFIED
:DEGREES
1290
root 3.75713 16.3228 -3.29475 209.365 -95.1893 -203.45
lowerback 2.82108 1.25289 3.24881
upperback 1.23283 1.72992 1.77504
thorax -0.274122 0.856697 -0.0515226
lowerneck -19.1402 0.223978 -0.137943
upperneck 19.5611 0.0595229 0.905052
head 9.32474 0.0907886 0.338391
rclavicle 1.11319e-014 -2.82274e-014
rhumerus -25.2917 -6.82181 -80.9737
rradius 21.4237
rwrist 30.4577
rhand -26.8631 1.52734
rfingers 7.12502
rthumb -0.287851 -28.4522
lclavicle 1.11319e-014 -2.82274e-014
lhumerus -27.9027 3.71082 89.8679
lradius 20.9133
lwrist -15.1502
lhand -25.2794 1.49946
lfingers 7.12502
lthumb 1.24169 31.4756
rfemur -11.0646 9.44092 29.9141
rtibia 22.2045
rfoot -15.9503 -17.5653
rtoes -1.68884
lfemur -31.7909 -4.02337 -18.9413
ltibia 58.062
lfoot -15.756 1.40176
ltoes -19.907
1291
root 3.7672 16.33 -3.30191 208.863 -95.1074 -202.883
lowerback 2.8669 1.27453 3.26718
upperback 1.25066 1.76078 1.73019
thorax -0.278723 0.872468 -0.109417
lowerneck -19.2064 0.215189 -0.137196
upperneck 19.5619 0.0619783 0.84563
head 9.33697 0.0856563 0.318268
rclavicle -1.59028e-014 8.74653e-015
rhumerus -25.0288 -6.23687 -81.2766
rradius 21.8772
rwrist 29.8992
rhand -26.8605 1.35515
rfingers 7.12502
rthumb -0.285362 -28.6244
lclavicle -1.59028e-014 8.74653e-015
lhumerus -27.8045 3.75156 89.8008
lradius 20.8889
lwrist -15.2646
lhand -25.1347 1.44304
lfingers 7.12502
lthumb 1.38149 31.4183
rfemur -10.5933 9.76399 29.9664
rtibia 21.9604
rfoot -16.265 -17.9305
rtoes -1.31244
lfemur -32.4916 -4.33124 -19.0374
ltibia 56.1897
lfoot -16.1493 1.11902
ltoes -19.681
1292
root 3.77665 16.3289 -3.30815 208.441 -95.0199 -202.384
lowerback 2.92049 1.29962 3.29553
upperback 1.24001 1.79824 1.67196
thorax -0.315905 0.89116 -0.187451
lowerneck -19.1937 0.209447 -0.144831
upperneck 19.5122 0.0583203 0.842445
head 9.31737 0.0832608 0.317829
rclavicle -1.59028e-015 2.78299e-015
rhumerus -24.8208 -5.51595 -81.6466
rradius 22.2944
rwrist 28.9172
rhand -27.0005 1.31635
rfingers 7.12502
rthumb -0.420539 -28.663
lclavicle -1.59028e-015 2.78299e-015
lhumerus -27.7993 3.82902 89.7045
lradius 20.9049
lwrist -15.3702
lhand -25.0474 1.36076
lfingers 7.12502
lthumb 1.46582 31.3355
rfemur -10.0498 10.0848 30.0248
rtibia 21.5707
rfoot -16.4166 -18.284
rtoes -1.32909
lfemur -33.0029 -4.50179 -19.2127
ltibia 54.0964
lfoot -16.3459 1.23151
ltoes -19.9342
1293
root 3.78624 16.3352 -3.31174 208.091 -94.8862 -201.941
lowerback 2.98289 1.32866 3.33581
upperback 1.22165 1.84197 1.61072
thorax -0.36515 0.912788 -0.275822
lowerneck -19.1584 0.212315 -0.198581
upperneck 19.4207 0.0708673 0.883089
head 9.27893 0.0900731 0.342179
rclavicle 1.74931e-014 -1.35174e-014
rhumerus -24.6037 -4.7352 -82.0313
rradius 22.7269
rwrist 27.7219
rhand -27.0797 1.32864
rfingers 7.12502
rthumb -0.497068 -28.6505
lclavicle 1.74931e-014 -1.35174e-014
lhumerus -27.8015 3.90456 89.6165
lradius 20.9036
lwrist -15.4202
lhand -24.9917 1.36087
lfingers 7.12502
lthumb 1.51962 31.3352
rfemur -9.44108 10.2381 30.0417
rtibia 20.9713
rfoot -16.4841 -18.4215
rtoes -1.3777
lfemur -33.4646 -4.69088 -19.3955
ltibia 51.805
lfoot -16.5397 1.51722
ltoes -20.7966
1294
root 3.79245 16.3396 -3.31552 207.825 -94.8089 -201.626
lowerback 3.02277 1.34309 3.38171
upperback 1.25254 1.86278 1.58951
thorax -0.35291 0.92361 -0.324308
lowerneck -19.1688 0.215037 -0.251483
upperneck 19.2781 0.100248 0.858237
head 9.23097 0.0980176 0.346077
rclavicle -2.06736e-014 -3.97569e-015
rhumerus -24.388 -4.00405 -82.3227
rradius 23.1757
rwrist 27.042
rhand -27.1349 1.45266
rfingers 7.12502
rthumb -0.550342 -28.5264
lclavicle -2.06736e-014 -3.97569e-015
lhumerus -27.7565 4.08948 89.5368
lradius 20.8546
lwrist -15.6756
lhand -25.0263 1.36491
lfingers 7.12502
lthumb 1.48621 31.3395
rfemur -8.72603 10.4125 30.1171
rtibia 20.2841
rfoot -16.5086 -18.6715
rtoes -1.35065
lfemur -33.7699 -4.80341 -19.5495
ltibia 49.3299
lfoot -16.6104 1.78298
ltoes -20.8121
1295
root 3.79763 16.3501 -3.32017 207.02 -94.7083 -200.737
lowerback 3.02742 1.33951 3.33619
upperback 1.27421 1.85633 1.56162
thorax -0.33405 0.920879 -0.327064
lowerneck -19.1907 0.241878 -0.243873
upperneck 19.1581 0.159913 0.766423
head 9.19288 0.116939 0.321049
rclavicle -2.22639e-014 -6.36111e-015
rhumerus -24.2208 -3.00385 -82.7097
rradius 23.6516
rwrist 26.1212
rhand -27.4018 1.38439
rfingers 7.12502
rthumb -0.808115 -28.5938
lclavicle -2.22639e-014 -6.36111e-015
lhumerus -27.7317 4.20185 89.4915
lradius 20.8514
lwrist -15.6515
lhand -25.0477 1.48348
lfingers 7.12502
lthumb 1.4655 31.4582
rfemur -7.92949 10.6833 30.1225
rtibia 19.3957
rfoot -16.443 -18.9093
rtoes -1.28834
lfemur -34.0082 -5.04953 -19.6874
ltibia 46.7138
lfoot -16.5296 2.08946
ltoes -20.962
1296
root 3.80293 16.3618 -3.32458 206.958 -94.6486 -200.549
lowerback 2.9882 1.32061 3.34997
upperback 1.28655 1.82911 1.56347
thorax -0.299866 0.907809 -0.330822
lowerneck -19.2202 0.284055 -0.223536
upperneck 19.0474 0.244695 0.639388
head 9.15949 0.144545 0.285225
rclavicle 1.59028e-014 1.23246e-014
rhumerus -23.9691 -2.27738 -82.9889
rradius 24.0125
rwrist 25.6692
rhand -27.3094 1.38475
rfingers 7.12502
rthumb -0.718923 -28.5938
lclavicle 1.59028e-014 1.23246e-014
lhumerus -27.7032 4.26156 89.4893
lradius 20.8238
lwrist -15.5711
lhand -25.2829 1.44527
lfingers 7.12502
lthumb 1.23831 31.4214
rfemur -7.12784 10.9236 30.1972
rtibia 18.3594
rfoot -16.2269 -19.1936
rtoes -1.39909
lfemur -34.2674 -5.21879 -19.7522
ltibia 44.0007
lfoot -16.3004 2.44644
ltoes -20.8588
